<svg
    width="44"
    height="44"
    viewBox="0 0 44 44"
    fill="none"
    xmlns="http://www.w3.org/2000/svg"
>
    <rect width="44" height="44" rx="22" fill="#2181E2" />
    <g clip-path="url(#clip0_86_175)">
        <path
            d="M14.5804 23.5106L14.6423 23.4134L18.3706 17.5804C18.383 17.5611 18.4004 17.5455 18.4209 17.5352C18.4415 17.5249 18.4644 17.5204 18.4873 17.5221C18.5102 17.5237 18.5322 17.5316 18.551 17.5447C18.5698 17.5578 18.5848 17.5758 18.5942 17.5967C19.2171 18.9928 19.7546 20.7288 19.5029 21.8098C19.3954 22.2544 19.101 22.8567 18.7696 23.4134C18.7266 23.4945 18.6796 23.5739 18.6298 23.6505C18.6181 23.6678 18.6023 23.682 18.5838 23.6918C18.5652 23.7015 18.5446 23.7065 18.5237 23.7064H14.6893C14.5861 23.7064 14.5259 23.5946 14.5804 23.5106Z"
            fill="white"
        />
        <path
            d="M31.1999 24.5945V25.5176C31.1999 25.5709 31.1675 25.6179 31.1205 25.6385C30.8319 25.7624 29.8437 26.2159 29.4329 26.7872C28.3843 28.2463 27.5834 30.3332 25.7926 30.3332H18.3222C15.6746 30.3332 13.5289 28.1804 13.5289 25.5236V25.4385C13.5289 25.3677 13.5863 25.3103 13.6571 25.3103H17.8217C17.904 25.3103 17.9645 25.3869 17.957 25.468C17.9277 25.7433 17.9794 26.0212 18.1058 26.2675C18.2269 26.5124 18.414 26.7186 18.6461 26.8628C18.8782 27.007 19.146 27.0833 19.4193 27.0833H21.4809V25.4737H19.4428C19.4189 25.4734 19.3956 25.4666 19.3753 25.4541C19.355 25.4415 19.3385 25.4237 19.3276 25.4024C19.3167 25.3812 19.3118 25.3574 19.3134 25.3336C19.315 25.3098 19.3231 25.2869 19.3367 25.2673C19.3591 25.2335 19.384 25.1985 19.4104 25.1584C19.6763 24.7756 19.9241 24.3805 20.1528 23.9745C20.3397 23.6477 20.5209 23.2985 20.6665 22.9482C20.6961 22.8849 20.7196 22.8201 20.7431 22.7567C20.7829 22.6449 20.8242 22.5403 20.8537 22.4357C20.883 22.3474 20.9068 22.2545 20.9303 22.1676C20.9993 21.8701 21.0289 21.555 21.0289 21.2283C21.0289 21.1001 21.0231 20.966 21.0111 20.8378C21.0054 20.6979 20.9876 20.558 20.9698 20.4181C20.9561 20.2927 20.937 20.1679 20.9125 20.0441C20.8818 19.8558 20.8426 19.6691 20.795 19.4845L20.7786 19.414C20.7431 19.2858 20.7138 19.1637 20.6725 19.0356C20.5586 18.6433 20.4278 18.2562 20.2807 17.8752C20.2291 17.7293 20.1703 17.5894 20.1116 17.4495C20.0247 17.2388 19.9361 17.0476 19.8553 16.8664C19.814 16.7838 19.7787 16.7087 19.7435 16.6322C19.7042 16.5461 19.6633 16.4606 19.6211 16.3759C19.5915 16.3129 19.5577 16.2538 19.5342 16.1948L19.2822 15.7295C19.2743 15.7154 19.2708 15.6993 19.272 15.6832C19.2732 15.6671 19.2791 15.6518 19.2891 15.639C19.299 15.6263 19.3124 15.6168 19.3277 15.6116C19.3431 15.6065 19.3595 15.606 19.3751 15.6102L20.9509 16.0374H20.9552C20.9581 16.0374 20.9598 16.0388 20.9609 16.0388L21.1688 16.0961L21.3969 16.1609L21.4809 16.1844V15.2479C21.4809 14.7958 21.8433 14.4292 22.2908 14.4292C22.5146 14.4292 22.7179 14.5204 22.8638 14.6691C23.0094 14.8182 23.1009 15.0212 23.1009 15.2482V16.6382L23.2686 16.6852C23.2823 16.6895 23.2953 16.696 23.307 16.7044C23.3483 16.7354 23.4073 16.781 23.4821 16.8369C23.5412 16.8839 23.6045 16.9415 23.6811 17.0003C23.8327 17.1227 24.0136 17.2801 24.2125 17.4612C24.2656 17.5071 24.3172 17.5541 24.3645 17.6011C24.6499 17.8638 24.9225 18.14 25.1815 18.4287C25.2583 18.5156 25.3334 18.6039 25.4099 18.6967C25.4865 18.7911 25.5676 18.8836 25.6381 18.9765C25.731 19.1004 25.831 19.2285 25.9179 19.3624C25.9592 19.4257 26.0062 19.4905 26.046 19.5539C26.1578 19.723 26.2564 19.8984 26.3508 20.0736C26.3906 20.1547 26.4319 20.243 26.4671 20.3299C26.5718 20.5641 26.654 20.8028 26.7071 21.0411C26.7234 21.0927 26.7352 21.1486 26.7409 21.1987V21.2105C26.7587 21.2813 26.7647 21.3564 26.7704 21.4329C26.7949 21.6785 26.7809 21.9264 26.7291 22.1676C26.7064 22.2719 26.6774 22.3747 26.6423 22.4755C26.607 22.5759 26.5718 22.6802 26.5259 22.7788C26.4372 22.9875 26.3313 23.1884 26.2094 23.3797C26.1696 23.4502 26.1226 23.5253 26.0753 23.5961C26.0237 23.6712 25.9709 23.742 25.9236 23.8111C25.8588 23.8994 25.7898 23.9922 25.7189 24.0748C25.6559 24.1617 25.5908 24.2485 25.5203 24.3251C25.4257 24.4381 25.3285 24.549 25.2288 24.6576C25.1697 24.727 25.1064 24.7978 25.0416 24.8611C24.9785 24.9316 24.9134 24.995 24.8547 25.054C24.7561 25.1527 24.6735 25.2292 24.6044 25.2925L24.4424 25.4413C24.4184 25.4623 24.3875 25.4738 24.3556 25.4737H23.1006V27.0833H24.6792C25.0313 27.0832 25.3718 26.9572 25.6393 26.7282C25.7321 26.6473 26.1369 26.2967 26.6156 25.7681C26.6317 25.7502 26.6526 25.7375 26.6758 25.7314L31.0362 24.4707C31.0554 24.4653 31.0755 24.4645 31.095 24.4682C31.1145 24.4719 31.1329 24.4801 31.1487 24.4921C31.1645 24.504 31.1773 24.5195 31.1862 24.5373C31.195 24.5551 31.1999 24.5747 31.1999 24.5945Z"
            fill="white"
        />
    </g>
    <defs>
        <clipPath id="clip0_86_175">
            <rect
                width="20"
                height="20"
                fill="white"
                transform="translate(12 12)"
            />
        </clipPath>
    </defs>
</svg>