<svg
    width="44"
    height="44"
    viewBox="0 0 44 44"
    fill="none"
    xmlns="http://www.w3.org/2000/svg"
>
    <rect width="44" height="44" rx="22" fill="#F46825" />
    <g clip-path="url(#clip0_86_173)">
        <path
            d="M21.4322 20.6791C21.3009 20.7987 21.1738 20.9236 21.0357 21.035C20.9835 21.0688 20.922 21.0855 20.8599 21.0826C19.0319 21.0849 17.2039 21.0863 15.3759 21.0868C15.2441 21.087 15.1968 21.0425 15.211 20.9162C15.2173 20.8592 15.1979 20.7958 15.2165 20.7448C15.2422 20.6977 15.2792 20.6577 15.3241 20.6283C15.3378 20.6169 15.3688 20.626 15.392 20.626C17.3588 20.6259 19.3257 20.6259 21.2925 20.6258C21.3266 20.6258 21.3608 20.6258 21.3949 20.6258L21.4322 20.6791Z"
            fill="white"
        />
        <path
            d="M21.4687 19.0876C21.4079 19.0876 21.347 19.0876 21.2861 19.0876C19.3422 19.0873 17.3982 19.0869 15.4542 19.0866C15.2374 19.0865 15.1209 18.8954 15.2218 18.7011C15.2313 18.6878 15.2433 18.6766 15.2571 18.668C15.2709 18.6595 15.2863 18.6537 15.3024 18.6512C15.3541 18.6454 15.4063 18.644 15.4582 18.6469C17.2286 18.6464 18.999 18.65 20.7694 18.6406C20.9959 18.6394 21.1713 18.6859 21.3121 18.8664C21.3601 18.9281 21.4372 18.9673 21.501 19.0167L21.4687 19.0876Z"
            fill="white"
        />
        <path
            d="M21.5173 18.0084C21.3693 18.1483 21.253 18.2682 21.125 18.3739C21.0733 18.4087 21.0118 18.4262 20.9495 18.4238C19.0931 18.4259 17.2366 18.4236 15.3802 18.4272C15.2351 18.4275 15.1924 18.3697 15.2122 18.242C15.2282 18.1391 15.1424 17.9849 15.3592 17.9851C17.3776 17.9875 19.396 17.988 21.4144 17.9867C21.4491 17.9917 21.4835 17.999 21.5173 18.0084Z"
            fill="white"
        />
        <path
            d="M21.4344 16.4386C21.3463 16.4427 21.2907 16.4475 21.2351 16.4475C19.3082 16.4478 17.3813 16.4471 15.4545 16.4456C15.378 16.4455 15.2442 16.4355 15.2356 16.4037C15.2067 16.2967 15.2177 16.1775 15.2256 16.0638C15.227 16.044 15.286 16.0192 15.3213 16.0128C15.373 16.007 15.4251 16.0057 15.4771 16.009C17.2188 16.0087 18.9606 16.0206 20.702 15.9984C21.064 15.9937 21.216 16.2082 21.4344 16.4386Z"
            fill="white"
        />
        <path
            d="M22.8619 20.6255C22.9187 20.6255 22.9755 20.6255 23.0323 20.6255C24.7447 20.6256 26.4571 20.6264 28.1695 20.6278C28.2389 20.6279 28.3639 20.6472 28.3681 20.6729C28.3836 20.7973 28.3836 20.9231 28.3678 21.0475C28.3664 21.0632 28.2884 21.0824 28.2459 21.0825C26.6203 21.0843 24.9946 21.084 23.369 21.0817C23.3126 21.0801 23.2584 21.0598 23.2149 21.0238C23.086 20.9095 22.9659 20.7852 22.8424 20.6647L22.8619 20.6255Z"
            fill="white"
        />
        <path
            d="M20.7768 21.2843C20.5507 21.5422 20.3748 21.7415 20.0026 21.7351C18.4873 21.7087 16.9713 21.7242 15.4556 21.7239C15.2385 21.7239 15.1209 21.5311 15.2221 21.3373C15.2415 21.3108 15.2706 21.293 15.303 21.2877C15.3489 21.2824 15.3953 21.2813 15.4414 21.2845C17.148 21.2844 18.8546 21.2844 20.5612 21.2843C20.6188 21.2843 20.6764 21.2843 20.7768 21.2843Z"
            fill="white"
        />
        <path
            d="M20.7781 15.7873C20.6841 15.7873 20.6324 15.7873 20.5807 15.7873C18.8616 15.7872 17.1426 15.7863 15.4235 15.7847C15.3556 15.7846 15.2351 15.7623 15.2292 15.7325C15.2095 15.6199 15.2109 15.5046 15.2333 15.3925C15.238 15.3672 15.3429 15.3471 15.4018 15.3468C16.0385 15.3432 16.6752 15.3437 17.3119 15.3437C18.2032 15.3437 19.0954 15.3663 19.9856 15.3339C20.3605 15.3203 20.551 15.5159 20.7781 15.7873Z"
            fill="white"
        />
        <path
            d="M23.5219 21.2845C23.5726 21.2845 23.6233 21.2845 23.674 21.2845C25.1777 21.2846 26.6813 21.2868 28.185 21.2815C28.3408 21.281 28.4019 21.318 28.3946 21.4823C28.388 21.6295 28.3898 21.7295 28.1881 21.7284C26.8175 21.7205 25.4469 21.7263 24.0763 21.7193C23.9845 21.7188 23.8825 21.6647 23.8039 21.6092C23.6954 21.5239 23.5923 21.432 23.4951 21.334L23.5219 21.2845Z"
            fill="white"
        />
        <path
            d="M24.8154 20.4254C24.0931 20.4254 23.4252 20.4273 22.7574 20.4207C22.7313 20.4137 22.7073 20.4002 22.6878 20.3815C22.6682 20.3628 22.6537 20.3395 22.6455 20.3138C22.598 19.9841 22.6171 19.9662 22.9529 19.9662C23.3452 19.9662 23.7378 19.9735 24.1299 19.9627C24.2883 19.9583 24.4049 20.0012 24.5062 20.1218C24.5869 20.2179 24.6854 20.2992 24.8154 20.4254Z"
            fill="white"
        />
        <path
            d="M19.8397 20.4259C19.9242 20.2771 19.9967 20.1393 20.081 20.0091C20.0994 19.9807 20.1601 19.968 20.2014 19.9678C20.6282 19.965 21.0551 19.9684 21.4819 19.9649C21.589 19.964 21.6283 20.0098 21.622 20.1097C21.6202 20.1383 21.6221 20.1672 21.622 20.1959C21.6218 20.4254 21.6218 20.4257 21.3958 20.4258C20.8771 20.426 20.3583 20.426 19.8397 20.4259Z"
            fill="white"
        />
        <path
            d="M16.0013 20.4256C15.7817 20.4256 15.562 20.4228 15.3425 20.4268C15.2451 20.4286 15.2094 20.3907 15.2104 20.2942C15.2146 19.9001 15.1805 19.971 15.5278 19.9672C15.8918 19.9632 16.2561 19.9705 16.6201 19.9632C16.7503 19.9607 16.8008 20.006 16.7867 20.1331C16.7817 20.1848 16.7815 20.2368 16.7862 20.2885C16.7946 20.3947 16.746 20.4302 16.6428 20.4278C16.4291 20.4227 16.2152 20.4262 16.0013 20.4262V20.4256Z"
            fill="white"
        />
        <path
            d="M19.9246 19.306C20.1232 19.306 20.3339 19.3059 20.5447 19.306C20.8503 19.3061 21.156 19.3102 21.4615 19.3045C21.5808 19.3023 21.6232 19.3446 21.6251 19.4639C21.6296 19.7403 21.6347 19.7459 21.3606 19.7524C20.9802 19.7614 20.5997 19.759 20.2193 19.7658C20.1125 19.7677 20.0727 19.7314 20.0556 19.6202C20.0395 19.5156 19.9739 19.4186 19.9246 19.306Z"
            fill="white"
        />
        <path
            d="M15.9898 19.7504C15.7824 19.7504 15.5749 19.7467 15.3676 19.7517C15.2465 19.7547 15.1992 19.704 15.211 19.5864C15.2161 19.5351 15.1963 19.4758 15.216 19.4331C15.2387 19.3838 15.2918 19.3138 15.3329 19.3129C15.7767 19.3039 16.2206 19.3036 16.6646 19.3119C16.7058 19.3126 16.7521 19.3853 16.7831 19.433C16.799 19.4573 16.7863 19.5002 16.7863 19.5347C16.7864 19.7638 16.7863 19.764 16.5607 19.7644C16.3705 19.7647 16.1802 19.7647 15.9899 19.7644L15.9898 19.7504Z"
            fill="white"
        />
        <path
            d="M16.002 17.1036C15.7886 17.1036 15.5752 17.0996 15.362 17.1052C15.2516 17.1081 15.1992 17.0717 15.211 16.9568C15.2154 16.9052 15.2155 16.8533 15.2113 16.8017C15.2053 16.7096 15.241 16.6614 15.3385 16.6606C15.7766 16.6569 16.2147 16.652 16.6528 16.6458C16.747 16.6444 16.7927 16.6808 16.7865 16.7781C16.7819 16.8355 16.7821 16.8932 16.7871 16.9505C16.7997 17.0746 16.7412 17.1102 16.6247 17.1066C16.4173 17.1002 16.2096 17.1048 16.002 17.1048L16.002 17.1036Z"
            fill="white"
        />
        <path
            d="M19.8378 16.6595C19.9992 16.6595 20.13 16.6595 20.2608 16.6596C20.6482 16.6597 21.0358 16.6679 21.4228 16.6567C21.6087 16.6514 21.6263 16.7434 21.6257 16.8908C21.6251 17.0327 21.6081 17.1146 21.4298 17.1086C21.037 17.0954 20.6435 17.1025 20.2504 17.1062C20.1408 17.1073 20.076 17.094 20.0472 16.9605C20.0264 16.8644 19.9288 16.7847 19.8378 16.6595Z"
            fill="white"
        />
        <path
            d="M19.9276 17.7721C19.9794 17.6411 20.0157 17.531 20.0671 17.4284C20.0876 17.3875 20.141 17.3358 20.1801 17.3353C20.6239 17.329 21.0677 17.3293 21.5116 17.3364C21.536 17.3431 21.5584 17.3557 21.5767 17.3731C21.595 17.3905 21.6087 17.4123 21.6166 17.4363C21.6724 17.7192 21.6265 17.7717 21.3428 17.7719C20.9219 17.7723 20.5011 17.7723 20.0802 17.7721C20.0243 17.7721 19.9684 17.7721 19.9276 17.7721Z"
            fill="white"
        />
        <path
            d="M23.4483 19.3068C23.6386 19.3069 23.8297 19.3176 24.019 19.3037C24.1856 19.2914 24.2382 19.3579 24.2164 19.5113C24.2125 19.5456 24.2124 19.5803 24.2159 19.6146C24.2231 19.7107 24.177 19.7505 24.0834 19.7503C23.6451 19.7493 23.2068 19.7492 22.7685 19.7501C22.6714 19.7502 22.6354 19.7006 22.6397 19.6092C22.6426 19.5517 22.6425 19.4942 22.6394 19.4367C22.6337 19.3398 22.6785 19.3041 22.7735 19.3056C22.9984 19.3091 23.2233 19.3067 23.4483 19.3068Z"
            fill="white"
        />
        <path
            d="M23.4263 19.0873C23.2179 19.0873 23.0095 19.0834 22.8013 19.0888C22.6837 19.0918 22.6383 19.05 22.6371 18.9285C22.6343 18.6464 22.6288 18.6463 22.918 18.6464C23.2941 18.6465 23.6705 18.6544 24.0463 18.6437C24.2113 18.6391 24.2252 18.721 24.2165 18.8459C24.2085 18.9604 24.2575 19.1001 24.0511 19.089C23.8434 19.0778 23.6346 19.0865 23.4263 19.0865L23.4263 19.0873Z"
            fill="white"
        />
        <path
            d="M23.4197 15.7866C23.2115 15.7869 23.0032 15.783 22.7951 15.7885C22.6867 15.7913 22.6297 15.7593 22.6405 15.6422C22.6458 15.585 22.6254 15.5198 22.6467 15.4712C22.6686 15.4212 22.7263 15.352 22.7695 15.3512C23.2089 15.3426 23.6484 15.3429 24.0879 15.352C24.131 15.3529 24.1906 15.4216 24.2098 15.4714C24.2311 15.5267 24.2112 15.5966 24.2157 15.6598C24.2229 15.7614 24.1712 15.7888 24.079 15.7875C23.8593 15.7842 23.6395 15.7864 23.4197 15.7866Z"
            fill="white"
        />
        <path
            d="M23.4239 18.4251C23.2099 18.4251 22.9958 18.4224 22.7819 18.4263C22.6784 18.4282 22.6196 18.3857 22.6427 18.2843C22.6658 18.1828 22.5501 18.0004 22.7468 17.9929C23.2031 17.9755 23.6606 17.9859 24.1174 17.9935C24.1505 17.9941 24.199 18.0594 24.2109 18.1026C24.2272 18.1616 24.2117 18.2286 24.2161 18.2918C24.2228 18.3893 24.1786 18.4261 24.0833 18.4249C23.8636 18.4219 23.6437 18.4239 23.4239 18.4239V18.4251Z"
            fill="white"
        />
        <path
            d="M23.4391 17.7711C23.225 17.7711 23.0108 17.7653 22.797 17.7728C22.5876 17.7801 22.6492 17.6309 22.6398 17.5215C22.6297 17.4053 22.6444 17.3241 22.8009 17.3275C23.2231 17.3368 23.6456 17.3339 24.0679 17.3299C24.1817 17.3288 24.2169 17.3706 24.2178 17.4822C24.2201 17.7695 24.2249 17.7697 23.9425 17.7703C23.7747 17.7707 23.6069 17.7704 23.4391 17.7704V17.7711Z"
            fill="white"
        />
        <path
            d="M15.9964 17.3299C16.2047 17.3299 16.4132 17.3359 16.6211 17.3277C16.7524 17.3226 16.79 17.3738 16.789 17.4994C16.7867 17.7722 16.7924 17.7726 16.5135 17.7724C16.1375 17.7721 15.7612 17.7621 15.3856 17.7741C15.1697 17.781 15.2205 17.6424 15.2102 17.5219C15.1985 17.386 15.2361 17.3198 15.3891 17.3285C15.591 17.3398 15.7939 17.3312 15.9964 17.3312V17.3299Z"
            fill="white"
        />
        <path
            d="M23.4375 17.1041C23.2185 17.1041 22.9994 17.1007 22.7804 17.1055C22.6757 17.1078 22.6315 17.0673 22.6393 16.9638C22.6429 16.9121 22.643 16.8603 22.6395 16.8087C22.6331 16.7083 22.6742 16.6599 22.7788 16.6604C23.2112 16.6623 23.6435 16.6624 24.0758 16.6608C24.1788 16.6604 24.2245 16.7035 24.2157 16.8068C24.2113 16.8526 24.2114 16.8987 24.216 16.9446C24.2293 17.0632 24.1826 17.1099 24.06 17.1055C23.8527 17.0981 23.645 17.1035 23.4375 17.1035V17.1041Z"
            fill="white"
        />
        <path
            d="M23.4175 16.4476C23.2095 16.4476 23.0013 16.4438 22.7933 16.4491C22.684 16.4519 22.629 16.4166 22.6397 16.3011C22.6438 16.2493 22.644 16.1974 22.6403 16.1456C22.6347 16.0515 22.6745 16.0086 22.7713 16.009C23.2106 16.011 23.65 16.0068 24.0891 16.0156C24.1318 16.0164 24.189 16.0846 24.2102 16.134C24.2311 16.1827 24.211 16.2476 24.2159 16.3049C24.2247 16.4087 24.1822 16.4503 24.0765 16.4481C23.8569 16.4434 23.6372 16.4467 23.4175 16.4467V16.4476Z"
            fill="white"
        />
        <path
            d="M28.9396 24.9245C28.7078 25.1661 28.5543 25.378 28.1935 25.3736C26.4345 25.352 24.675 25.3642 22.9157 25.3643C22.6752 25.3644 22.5712 25.2125 22.6655 24.9922C22.6857 24.96 22.7178 24.9371 22.7548 24.9285C22.8005 24.921 22.8469 24.9192 22.893 24.9233C24.8317 24.9236 26.7704 24.924 28.7091 24.9245C28.7703 24.9245 28.8314 24.9245 28.9396 24.9245Z"
            fill="white"
        />
        <path
            d="M28.9233 26.0137C28.8424 26.0186 28.792 26.0244 28.7416 26.0244C26.7872 26.0252 24.8328 26.025 22.8784 26.0237C22.8093 26.0236 22.6877 26.0039 22.6805 25.9728C22.6622 25.8605 22.6599 25.7462 22.6738 25.6333C22.6749 25.616 22.7258 25.5923 22.7559 25.5881C22.8135 25.5829 22.8713 25.5815 22.9291 25.584C24.6638 25.5841 26.3986 25.5976 28.133 25.5738C28.5025 25.5688 28.7075 25.7338 28.9233 26.0137Z"
            fill="white"
        />
        <path
            d="M21.3877 27.6188C21.2562 27.7386 21.129 27.8637 20.9906 27.975C20.9379 28.0082 20.8762 28.0242 20.8141 28.0208C19.195 28.0231 17.576 28.0224 15.957 28.0185C15.8685 28.0109 15.7843 27.9769 15.7153 27.9209C15.5966 27.8314 15.4931 27.7218 15.3833 27.6206L15.4062 27.5808H21.3503C21.3628 27.5935 21.3752 27.6062 21.3877 27.6188Z"
            fill="white"
        />
        <path
            d="M28.8604 23.3853C28.7587 23.3853 28.7012 23.3852 28.6438 23.3853C26.7342 23.3857 24.8245 23.386 22.9149 23.3864C22.6643 23.3864 22.5866 23.2797 22.6641 23.0317C22.6731 23.0126 22.686 22.9956 22.7021 22.982C22.7182 22.9683 22.737 22.9583 22.7572 22.9525C22.8143 22.9433 22.8723 22.9412 22.9299 22.9462C24.6543 22.9463 26.379 22.9591 28.1031 22.9366C28.4673 22.9319 28.6392 23.1284 28.8604 23.3853Z"
            fill="white"
        />
        <path
            d="M28.1792 22.7261C27.5493 22.7261 26.9193 22.7261 26.2894 22.7261C25.1504 22.7261 24.0114 22.7253 22.8724 22.7238C22.8044 22.7236 22.6837 22.7016 22.6778 22.6717C22.6568 22.5597 22.6585 22.4446 22.6829 22.3333C22.689 22.3047 22.8024 22.2853 22.8667 22.2851C23.7224 22.2816 24.578 22.2822 25.4337 22.2822C26.1275 22.2821 26.8214 22.2896 27.5151 22.2785C27.7118 22.2753 27.8581 22.3267 27.9833 22.4762C28.0481 22.5536 28.1386 22.6097 28.2175 22.6754C28.2047 22.6923 28.192 22.7092 28.1792 22.7261Z"
            fill="white"
        />
        <path
            d="M20.7202 28.2699C20.5945 28.387 20.4736 28.51 20.3404 28.6179C20.2865 28.6502 20.2239 28.6651 20.1611 28.6604C18.9746 28.6628 17.788 28.6642 16.6015 28.6581C16.5123 28.6501 16.4274 28.6161 16.3572 28.5604C16.2453 28.4712 16.1381 28.3762 16.0359 28.2759L16.0649 28.2351H20.6886L20.7202 28.2699Z"
            fill="white"
        />
        <path
            d="M19.444 27.3146C19.5781 27.19 19.709 27.0617 19.8483 26.9433C19.8917 26.9159 19.9427 26.903 19.9939 26.9064C20.4686 26.9037 20.9433 26.9074 21.418 26.9026C21.5377 26.9014 21.5805 26.9437 21.5837 27.0627C21.5918 27.3644 21.5963 27.3643 21.3018 27.3644C20.6943 27.3644 20.0867 27.3644 19.4792 27.3644L19.444 27.3146Z"
            fill="white"
        />
        <path
            d="M17.284 27.364C16.6311 27.364 15.9783 27.3629 15.3255 27.3651C15.2311 27.3655 15.1842 27.3325 15.1884 27.2353C15.1918 27.1836 15.1915 27.1316 15.1874 27.0798C15.1735 26.9446 15.2292 26.8998 15.3665 26.9021C15.8057 26.9096 16.2452 26.9105 16.6843 26.9014C16.7498 26.8969 16.8155 26.9077 16.8761 26.9329C16.9367 26.9581 16.9906 26.9971 17.0335 27.0468C17.1278 27.138 17.2278 27.2232 17.3328 27.3018L17.284 27.364Z"
            fill="white"
        />
        <path
            d="M28.3046 27.5642C28.5124 27.5644 28.7203 27.5682 28.9279 27.5628C29.0347 27.56 29.0772 27.6027 29.0661 27.7056C29.0654 27.7171 29.0653 27.7286 29.066 27.7401C29.0693 28.0223 29.0693 28.0223 28.7922 28.0224C28.417 28.0225 28.0417 28.0164 27.6667 28.0255C27.5257 28.0288 27.4769 27.9794 27.4928 27.8462C27.4979 27.8004 27.4979 27.7541 27.4929 27.7083C27.4811 27.5914 27.5379 27.5596 27.6466 27.5624C27.8658 27.5681 28.0852 27.5641 28.3046 27.5642Z"
            fill="white"
        />
        <path
            d="M28.2636 27.3639C28.0615 27.3639 27.8592 27.3592 27.6572 27.3657C27.543 27.3694 27.4886 27.3404 27.4911 27.213C27.4983 26.8477 27.4691 26.9078 27.7938 26.9052C28.1634 26.9022 28.5332 26.9095 28.9027 26.9024C29.0343 26.8999 29.0826 26.947 29.067 27.0731C29.0617 27.1131 29.0618 27.1537 29.0671 27.1938C29.0881 27.3374 29.0187 27.3716 28.8873 27.3661C28.6798 27.3574 28.4716 27.3638 28.2636 27.3639Z"
            fill="white"
        />
        <path
            d="M23.4248 28.0225C23.2223 28.0226 23.0196 28.0172 22.8174 28.0247C22.6962 28.0292 22.6461 27.9847 22.6559 27.8651C22.6596 27.8075 22.6599 27.7497 22.6565 27.6921C22.6524 27.5942 22.7009 27.5624 22.7946 27.563C23.2227 27.5657 23.6509 27.5658 24.079 27.5632C24.1754 27.5626 24.218 27.5999 24.2138 27.6954C24.2102 27.753 24.2104 27.8108 24.2144 27.8684C24.2251 27.992 24.1668 28.0282 24.0496 28.0244C23.8415 28.0175 23.6331 28.0224 23.4248 28.0225Z"
            fill="white"
        />
        <path
            d="M23.443 26.9045C23.6505 26.9048 23.8582 26.9092 24.0655 26.903C24.1802 26.8996 24.2229 26.9471 24.2153 27.0559C24.2112 27.1075 24.2112 27.1593 24.2152 27.2109C24.2259 27.3343 24.1664 27.3674 24.0503 27.366C23.6411 27.361 23.2318 27.3598 22.8226 27.3667C22.6912 27.3689 22.6543 27.3195 22.6536 27.1957C22.6519 26.9044 22.647 26.9044 22.9415 26.9043C23.1087 26.9042 23.2759 26.9043 23.443 26.9045Z"
            fill="white"
        />
        <path
            d="M23.4372 24.043C23.2289 24.0428 23.0205 24.0393 22.8122 24.0443C22.704 24.047 22.6576 24.0118 22.6533 23.8971C22.6421 23.5997 22.6506 23.5853 22.9551 23.5846C23.3139 23.5838 23.6728 23.59 24.0314 23.5817C24.1779 23.5783 24.2218 23.6321 24.2193 23.7728C24.2143 24.0427 24.2208 24.0429 23.9581 24.0431C23.7845 24.0433 23.6108 24.0432 23.4372 24.043Z"
            fill="white"
        />
        <path
            d="M27.277 23.6098C27.3405 23.605 27.39 23.5981 27.4395 23.5981C27.9134 23.5977 28.3875 23.6075 28.8611 23.5947C29.0579 23.5894 29.0693 23.6814 29.0708 23.8356C29.0723 23.987 29.04 24.0506 28.8708 24.0456C28.4667 24.0338 28.0619 24.0411 27.6573 24.0438C27.561 24.0445 27.5083 24.0318 27.4813 23.9131C27.4582 23.8116 27.3599 23.727 27.277 23.6098Z"
            fill="white"
        />
        <path
            d="M27.3749 24.7074C27.4101 24.5864 27.4515 24.4673 27.499 24.3505C27.5126 24.3288 27.5309 24.3104 27.5526 24.2969C27.5743 24.2833 27.5988 24.2749 27.6243 24.2723C28.0636 24.2671 28.503 24.2665 28.9422 24.2756C28.9843 24.2765 29.0449 24.3447 29.0611 24.3935C29.08 24.4604 29.0801 24.5313 29.0613 24.5982C29.0502 24.6401 28.9963 24.7015 28.9612 24.7018C28.4301 24.7053 27.899 24.7002 27.3679 24.6965C27.3649 24.6965 27.3619 24.6881 27.3749 24.7074Z"
            fill="white"
        />
        <path
            d="M27.3818 26.2459C27.8891 26.2459 28.4091 26.2478 28.9291 26.2444C29.0363 26.2437 29.0757 26.2862 29.0672 26.3887C29.0625 26.446 29.0823 26.5107 29.0616 26.5597C29.0404 26.6102 28.9842 26.6815 28.942 26.6824C28.5027 26.6915 28.0632 26.6906 27.6239 26.6846C27.5982 26.6811 27.5737 26.6717 27.5522 26.6572C27.5307 26.6427 27.5129 26.6234 27.5 26.6009C27.4545 26.4847 27.4151 26.3662 27.3818 26.2459Z"
            fill="white"
        />
        <path
            d="M23.4278 26.7029C23.2371 26.7029 23.0458 26.693 22.856 26.7059C22.69 26.7172 22.6352 26.6498 22.6545 26.4959C22.6582 26.4557 22.6586 26.4153 22.6557 26.375C22.6515 26.2786 22.6984 26.2434 22.7926 26.2439C23.2201 26.2462 23.6477 26.247 24.0753 26.2437C24.1824 26.2428 24.2127 26.2897 24.2171 26.3891C24.2299 26.6809 24.2255 26.689 23.9301 26.6896C23.7627 26.6899 23.5953 26.6899 23.4279 26.6896L23.4278 26.7029Z"
            fill="white"
        />
        <path
            d="M20.8088 26.2447C21.0049 26.2447 21.2013 26.2505 21.3972 26.2427C21.5277 26.2374 21.5876 26.2764 21.5837 26.4165C21.5751 26.7329 21.6296 26.7034 21.2992 26.7021C20.9301 26.7007 20.5608 26.6863 20.1919 26.6921C19.9936 26.6952 20.0253 26.5692 20.0219 26.45C20.0185 26.3332 20.0133 26.232 20.1859 26.2424C20.3928 26.2549 20.6011 26.2454 20.8088 26.2454V26.2447Z"
            fill="white"
        />
        <path
            d="M20.8194 25.5845C21.0271 25.5845 21.2349 25.5884 21.4424 25.5829C21.5532 25.58 21.6047 25.6194 21.5957 25.7324C21.5924 25.7841 21.5923 25.836 21.5953 25.8877C21.5991 25.9794 21.5627 26.0262 21.4646 26.0257C21.0262 26.0237 20.5878 26.0233 20.1494 26.0247C20.0496 26.025 20.0259 25.9738 20.0217 25.8839C20.0079 25.5855 20.0051 25.5855 20.3002 25.5853C20.4733 25.5851 20.6464 25.5851 20.8194 25.5852V25.5845Z"
            fill="white"
        />
        <path
            d="M28.2877 28.223C28.4956 28.223 28.7036 28.2288 28.9111 28.2208C29.0351 28.216 29.0794 28.2639 29.0668 28.382C29.0614 28.4332 29.0818 28.4933 29.0614 28.5353C29.0372 28.585 28.9824 28.6543 28.9396 28.6551C28.5011 28.6639 28.0623 28.6598 27.6236 28.661C27.5269 28.6613 27.4885 28.6157 27.494 28.5224C27.4975 28.4649 27.4975 28.4072 27.4938 28.3498C27.4872 28.25 27.5362 28.2201 27.6297 28.2218C27.849 28.2257 28.0684 28.223 28.2877 28.223Z"
            fill="white"
        />
        <path
            d="M20.8136 25.3627C20.606 25.3627 20.3982 25.3573 20.1908 25.3647C20.0634 25.3693 20.0196 25.3239 20.0206 25.1957C20.0227 24.9253 20.0165 24.925 20.2942 24.9246C20.669 24.924 21.0441 24.933 21.4185 24.92C21.6136 24.9132 21.5935 25.0275 21.5968 25.1522C21.6002 25.2808 21.5941 25.3778 21.4189 25.3668C21.2178 25.3541 21.0154 25.3638 20.8136 25.3638V25.3627Z"
            fill="white"
        />
        <path
            d="M20.796 24.708C20.5884 24.708 20.3807 24.7047 20.1731 24.7093C20.0616 24.7118 20.0234 24.6675 20.0213 24.5565C20.0156 24.2697 20.011 24.2696 20.2944 24.2693C20.675 24.2689 21.0559 24.2753 21.4363 24.2655C21.6121 24.261 21.5983 24.3667 21.5951 24.4789C21.592 24.59 21.6275 24.7195 21.4362 24.7115C21.2231 24.7027 21.0094 24.7095 20.796 24.7095V24.708Z"
            fill="white"
        />
        <path
            d="M15.9572 26.6886C15.7555 26.6886 15.5536 26.6831 15.3521 26.6901C15.1515 26.6972 15.1932 26.5571 15.188 26.4421C15.1831 26.3313 15.1838 26.2398 15.3442 26.243C15.759 26.2512 16.1742 26.2504 16.5891 26.243C16.7338 26.2404 16.7552 26.3153 16.7415 26.4257C16.7285 26.5308 16.8056 26.689 16.597 26.6887C16.3837 26.6884 16.1705 26.6884 15.9572 26.6886Z"
            fill="white"
        />
        <path
            d="M20.7889 22.7248C20.5805 22.7248 20.372 22.7211 20.1637 22.7264C20.0568 22.7291 20.0253 22.6853 20.0222 22.5831C20.0132 22.2838 20.0093 22.2837 20.3067 22.2834C20.6714 22.2831 21.0363 22.2899 21.4008 22.2807C21.6073 22.2754 21.5746 22.4098 21.5824 22.5356C21.5909 22.6733 21.547 22.7364 21.3966 22.7282C21.1945 22.7173 20.9915 22.7255 20.7889 22.7255V22.7248Z"
            fill="white"
        />
        <path
            d="M15.9557 25.3622C15.7477 25.3622 15.5395 25.3583 15.3316 25.3633C15.1458 25.3678 15.1934 25.2338 15.1894 25.1336C15.1853 25.0313 15.1667 24.9213 15.3348 24.9236C15.7566 24.9294 16.1785 24.9273 16.6004 24.9243C16.7048 24.9235 16.7397 24.9651 16.7437 25.0676C16.7551 25.3626 16.7589 25.3625 16.4585 25.3628C16.2909 25.363 16.1233 25.363 15.9557 25.3628V25.3622Z"
            fill="white"
        />
        <path
            d="M15.9496 22.7249C15.7473 22.7248 15.5449 22.7207 15.3428 22.7265C15.2321 22.7296 15.1902 22.6909 15.1871 22.5778C15.1793 22.2891 15.179 22.2841 15.4621 22.2837C15.8263 22.2833 16.1908 22.2933 16.5545 22.2801C16.7574 22.2727 16.7377 22.3912 16.7436 22.5236C16.7498 22.6635 16.7219 22.7392 16.5563 22.7281C16.3549 22.7146 16.1519 22.7249 15.9496 22.7249Z"
            fill="white"
        />
        <path
            d="M23.4337 24.2681C23.6416 24.2681 23.8497 24.2751 24.0572 24.2658C24.2144 24.2587 24.2257 24.3503 24.2161 24.4637C24.2074 24.5678 24.2653 24.7113 24.0703 24.7103C23.6488 24.7083 23.2272 24.7072 22.8058 24.7109C22.6121 24.7126 22.6621 24.5742 22.6556 24.468C22.649 24.3585 22.6489 24.2592 22.8102 24.266C23.0177 24.2748 23.2258 24.2682 23.4337 24.2681Z"
            fill="white"
        />
        <path
            d="M15.9521 24.7078C15.7498 24.7078 15.5472 24.7015 15.3452 24.7097C15.1693 24.7168 15.1857 24.6013 15.1888 24.4908C15.1917 24.3868 15.1551 24.2645 15.3385 24.2676C15.7545 24.2747 16.1708 24.272 16.587 24.2681C16.6949 24.2671 16.7412 24.2991 16.7441 24.4149C16.7516 24.7079 16.7567 24.7078 16.4549 24.7083C16.2873 24.7086 16.1197 24.7086 15.9521 24.7084V24.7078Z"
            fill="white"
        />
        <path
            d="M20.796 24.0414C20.5825 24.0414 20.369 24.0388 20.1556 24.0426C20.0591 24.0442 20.0174 24.0058 20.0234 23.9099C20.0267 23.8525 20.0268 23.7949 20.0236 23.7374C20.0187 23.6438 20.0594 23.5991 20.1548 23.5993C20.5818 23.6001 21.0087 23.5976 21.4357 23.5998C21.6388 23.6008 21.5689 23.7593 21.5812 23.8666C21.5946 23.9838 21.5558 24.0501 21.4191 24.0446C21.2117 24.0364 21.0037 24.0425 20.796 24.0425L20.796 24.0414Z"
            fill="white"
        />
        <path
            d="M15.963 24.0415C15.7605 24.0416 15.5576 24.0331 15.3557 24.0444C15.2039 24.0529 15.1774 23.9761 15.1892 23.8551C15.1999 23.7455 15.1382 23.5965 15.3447 23.5984C15.7612 23.6023 16.1778 23.6006 16.5943 23.599C16.6934 23.5986 16.7482 23.6336 16.7419 23.7402C16.7387 23.7979 16.7387 23.8556 16.742 23.9132C16.7475 24.012 16.6989 24.0441 16.6052 24.0425C16.3912 24.039 16.1771 24.0414 15.963 24.0415Z"
            fill="white"
        />
        <path
            d="M20.8027 23.3852C20.5944 23.3852 20.386 23.3815 20.1778 23.3867C20.0698 23.3894 20.0119 23.3572 20.023 23.24C20.0272 23.1882 20.0274 23.1362 20.0235 23.0844C20.0177 22.9902 20.057 22.9472 20.1542 22.9475C20.5824 22.9491 21.0106 22.9473 21.4388 22.9475C21.6337 22.9476 21.5706 23.0965 21.5804 23.1995C21.5907 23.3077 21.5735 23.393 21.4276 23.3878C21.2195 23.3803 21.011 23.3858 20.8027 23.3858V23.3852Z"
            fill="white"
        />
        <path
            d="M15.9699 23.3852C15.7678 23.3853 15.5654 23.3802 15.3634 23.3871C15.2414 23.3913 15.1864 23.3571 15.1862 23.2236C15.1859 22.948 15.1794 22.9478 15.4598 22.9476C15.8237 22.9474 16.188 22.9579 16.5514 22.9438C16.7496 22.936 16.7417 23.0439 16.7445 23.1813C16.7473 23.3181 16.727 23.3998 16.5589 23.3883C16.3635 23.3749 16.1663 23.3852 15.9699 23.3852Z"
            fill="white"
        />
        <path
            d="M23.431 28.2229C23.6391 28.223 23.8475 28.2287 24.0553 28.2209C24.1794 28.2162 24.2142 28.2662 24.2153 28.3828C24.2181 28.661 24.2228 28.6613 23.9426 28.6617C23.5841 28.6621 23.2252 28.6524 22.8673 28.6662C22.674 28.6736 22.6545 28.5825 22.6531 28.4259C22.6516 28.2708 22.6932 28.2071 22.8588 28.2195C23.0485 28.2337 23.2402 28.2228 23.431 28.2229Z"
            fill="white"
        />
        <path
            d="M15.9674 25.5859C16.1755 25.5859 16.384 25.593 16.5918 25.5836C16.7582 25.5761 16.747 25.6815 16.742 25.7876C16.7369 25.8943 16.7858 26.0295 16.59 26.0267C16.1737 26.0206 15.7574 26.0203 15.341 26.026C15.1462 26.0284 15.1948 25.8923 15.1887 25.7856C15.1825 25.6764 15.1803 25.5764 15.3429 25.5837C15.5507 25.5931 15.7592 25.586 15.9674 25.5859Z"
            fill="white"
        />
    </g>
    <defs>
        <clipPath id="clip0_86_173">
            <rect
                width="20"
                height="20"
                fill="white"
                transform="translate(12 12)"
            />
        </clipPath>
    </defs>
</svg>