<svg
    width="44"
    height="44"
    viewBox="0 0 44 44"
    fill="none"
    xmlns="http://www.w3.org/2000/svg"
>
    <rect
        x="0.5"
        y="0.5"
        width="43"
        height="43"
        rx="21.5"
        fill="#F5F6F7"
    />
    <rect
        x="0.5"
        y="0.5"
        width="43"
        height="43"
        rx="21.5"
        stroke="#DFE2E6"
    />
    <g clip-path="url(#clip0_86_177)">
        <path
            d="M29.4941 28.1902C27.7491 30.6505 24.0804 32.5929 20.0616 31.8331C15.5823 30.9872 12.4654 27.2524 12.0512 23.0307C11.5674 18.107 14.5669 13.9553 18.6507 12.5408C22.9061 11.0667 27.2154 12.7551 29.5 15.8007C27.5961 14.09 25.3808 13.3024 22.8564 13.5908C20.3169 13.881 18.3052 15.1395 16.8695 17.2878C14.6681 20.5822 15.1079 24.9266 17.6212 27.6923C19.195 29.4243 21.1474 30.3605 23.4554 30.4579C25.7634 30.5554 27.7745 29.7566 29.4941 28.1902Z"
            fill="url(#paint0_linear_86_177)"
        />
        <path
            d="M27.8334 22.0194C27.83 25.2374 25.2161 27.8367 21.9869 27.8334C18.7576 27.8301 16.1626 25.2144 16.1667 21.9685C16.1708 18.7516 18.7981 16.1606 22.0498 16.1668C25.2435 16.1721 27.8367 18.7965 27.8334 22.0194ZM18.1203 21.986C18.1496 24.0986 19.7642 25.8695 22.0113 25.8642C24.118 25.8591 25.8668 24.2239 25.8601 21.9781C25.8533 19.8898 24.2392 18.1394 21.9916 18.1354C19.8901 18.1316 18.1706 19.7653 18.1203 21.986Z"
            fill="url(#paint1_linear_86_177)"
        />
        <path
            d="M17.8413 27.3194C19.765 28.9198 21.9134 29.4523 24.2982 28.7461C25.8103 28.2985 27.0159 27.3708 27.9176 26.0411C29.7093 23.3994 29.5162 19.7506 27.4774 17.371C26.2313 15.9167 24.6661 15.104 22.8019 14.9707C20.9377 14.8375 19.2883 15.4487 17.8333 16.7197C18.0608 16.0685 19.7687 14.759 21.0305 14.2462C22.3082 13.727 23.6328 13.5507 24.9913 13.7416C28.8263 14.2807 31.7308 17.5001 31.9828 21.4742C32.2319 25.4036 29.7426 29.0103 26.0353 30.0448C22.6012 31.0027 19.3945 29.4434 17.8413 27.3194Z"
            fill="url(#paint2_linear_86_177)"
        />
    </g>
    <defs>
        <linearGradient
            id="paint0_linear_86_177"
            x1="11.9995"
            y1="21.9999"
            x2="29.5003"
            y2="21.9999"
            gradientUnits="userSpaceOnUse"
        >
            <stop stop-color="#00E0FF" />
            <stop offset="0.28" stop-color="#298AE5" />
            <stop offset="0.33" stop-color="#2C84E3" />
            <stop offset="0.93" stop-color="#5430C9" />
        </linearGradient>
        <linearGradient
            id="paint1_linear_86_177"
            x1="16.1667"
            y1="21.9997"
            x2="27.8333"
            y2="21.9997"
            gradientUnits="userSpaceOnUse"
        >
            <stop stop-color="#00E0FF" />
            <stop offset="0.26" stop-color="#298AE5" />
            <stop offset="0.31" stop-color="#2C84E3" />
            <stop offset="0.93" stop-color="#5430C9" />
        </linearGradient>
        <linearGradient
            id="paint2_linear_86_177"
            x1="17.8333"
            y1="21.9999"
            x2="31.9999"
            y2="21.9999"
            gradientUnits="userSpaceOnUse"
        >
            <stop stop-color="#00E0FF" />
            <stop offset="0.12" stop-color="#298AE5" />
            <stop offset="0.17" stop-color="#2C84E3" />
            <stop offset="0.85" stop-color="#5430C9" />
        </linearGradient>
        <clipPath id="clip0_86_177">
            <rect
                width="20"
                height="20"
                fill="white"
                transform="translate(12 12)"
            />
        </clipPath>
    </defs>
</svg>