<svg
    width="18"
    height="14"
    viewBox="0 0 18 14"
    fill="none"
    xmlns="http://www.w3.org/2000/svg"
>
    <path
        d="M14.7757 1.43853C13.7134 0.926964 12.5743 0.55005 11.3833 0.334158C11.3616 0.32999 11.3399 0.34041 11.3287 0.361217C11.1822 0.634712 11.02 0.991469 10.9063 1.2719C9.62529 1.0706 8.35081 1.0706 7.09605 1.2719C6.98238 0.985251 6.81422 0.634712 6.66705 0.361217C6.65588 0.341093 6.6342 0.330673 6.61252 0.334158C5.42216 0.549332 4.28303 0.926247 3.22007 1.43853C3.21086 1.44269 3.20298 1.44963 3.19774 1.45865C1.03706 4.84668 0.445133 8.15144 0.735498 11.4152C0.7368 11.4312 0.745362 11.4464 0.757178 11.4561C2.18273 12.5549 3.56366 13.222 4.9189 13.6642C4.94058 13.6711 4.96356 13.6628 4.97736 13.644C5.29794 13.1845 5.58371 12.7 5.82873 12.1905C5.84319 12.1607 5.82938 12.1253 5.79983 12.1135C5.34654 11.933 4.91493 11.713 4.49973 11.4631C4.46688 11.443 4.46425 11.3937 4.49449 11.3701C4.58186 11.3014 4.66926 11.2299 4.75269 11.1577C4.76779 11.1445 4.78882 11.1417 4.80656 11.15C7.53417 12.4571 10.4871 12.4571 13.1826 11.15C13.2003 11.141 13.2213 11.1438 13.2371 11.157C13.3205 11.2291 13.4079 11.3013 13.4959 11.37C13.5261 11.3937 13.5242 11.443 13.4913 11.4631C13.0761 11.7178 12.6445 11.933 12.1906 12.1128C12.161 12.1246 12.1479 12.1607 12.1624 12.1905C12.4127 12.6993 12.6984 13.1838 13.0131 13.6433C13.0262 13.6628 13.0499 13.6711 13.0715 13.6641C14.4334 13.222 15.8143 12.5549 17.2398 11.4561C17.2523 11.4464 17.2602 11.4318 17.2615 11.4159C17.6091 7.64258 16.6795 4.36491 14.7973 1.4593C14.7928 1.44963 14.7849 1.44269 14.7757 1.43853ZM6.23612 9.4279C5.41493 9.4279 4.73827 8.63663 4.73827 7.66482C4.73827 6.69302 5.40178 5.90174 6.23612 5.90174C7.07698 5.90174 7.74709 6.69999 7.73394 7.66482C7.73394 8.63663 7.0704 9.4279 6.23612 9.4279ZM11.7741 9.4279C10.953 9.4279 10.2763 8.63663 10.2763 7.66482C10.2763 6.69302 10.9398 5.90174 11.7741 5.90174C12.615 5.90174 13.2851 6.69999 13.272 7.66482C13.272 8.63663 12.615 9.4279 11.7741 9.4279Z"
        fill="#6A75FF"
    />
</svg>