<svg
    width="37"
    height="40"
    viewBox="0 0 37 40"
    fill="none"
    xmlns="http://www.w3.org/2000/svg"
>
    <mask
        id="mask0_232_140"
        style="mask-type: luminance"
        maskUnits="userSpaceOnUse"
        x="0"
        y="0"
        width="37"
        height="40"
    >
        <path
            d="M36.8573 40L36.8573 0L2.28882e-05 -1.61108e-06L2.11397e-05 40L36.8573 40Z"
            fill="white"
        />
    </mask>
    <g mask="url(#mask0_232_140)">
        <path
            d="M25.12 14.8422C25.2892 15.0124 25.4905 15.1474 25.7121 15.2395C25.9337 15.3316 26.1714 15.3789 26.4114 15.3787C26.6514 15.3785 26.889 15.3308 27.1105 15.2384C27.332 15.1459 27.533 15.0106 27.7019 14.8401C27.8709 14.6696 28.0044 14.4674 28.0948 14.2451C28.1853 14.0228 28.2308 13.7848 28.2289 13.5448C28.2269 13.3048 28.1775 13.0676 28.0834 12.8468C27.9893 12.626 27.8525 12.426 27.6808 12.2583C26.1499 10.7428 24.2041 9.71522 22.0893 9.30541C19.9745 8.89559 17.7857 9.12196 15.7995 9.9559C13.8134 10.7898 12.119 12.1939 10.9307 13.9906C9.7422 15.7873 9.11324 17.896 9.12318 20.0501C9.13294 22.2041 9.78122 24.3071 10.986 26.0928C12.1907 27.8786 13.8979 29.2671 15.8917 30.0827C17.8854 30.8985 20.0762 31.1049 22.1871 30.6756C24.2981 30.2464 26.2344 29.2011 27.7514 27.6717C27.9195 27.502 28.0526 27.3009 28.143 27.0796C28.2334 26.8585 28.2793 26.6218 28.2782 26.3828C28.2771 26.1439 28.229 25.9075 28.1365 25.6872C28.0441 25.4669 27.9091 25.2671 27.7394 25.0988C27.5697 24.9307 27.3685 24.7976 27.1474 24.7074C26.9263 24.6169 26.6895 24.571 26.4506 24.572C26.2117 24.5731 25.9753 24.6213 25.755 24.7137C25.5347 24.8062 25.3348 24.9412 25.1667 25.1109C24.1558 26.1307 22.8653 26.8281 21.4582 27.1146C20.0511 27.4011 18.5906 27.2638 17.2615 26.7203C15.9324 26.1768 14.7942 25.2514 13.991 24.061C13.1878 22.8708 12.7557 21.469 12.749 20.0331C12.7425 18.5971 13.1618 17.1914 13.9541 15.9938C14.7464 14.7962 15.876 13.8603 17.2001 13.3047C18.5241 12.749 19.9833 12.5985 21.3929 12.872C22.8026 13.1456 24.0995 13.831 25.1196 14.8417L25.12 14.8422Z"
            fill="url(#paint0_linear_232_140)"
        />
        <path
            d="M36.8574 27.6405C36.8553 26.4457 36.6161 25.2631 36.1538 24.1612C35.6916 23.0594 35.0153 22.0602 34.1643 21.2214C33.8221 20.8816 33.6287 20.42 33.6265 19.9377C33.6243 19.4554 33.8135 18.9919 34.1526 18.649C35.8478 16.9341 36.7936 14.617 36.7826 12.2057C36.7715 9.79447 35.8045 7.48604 34.0937 5.78682C31.2832 3.00438 27.7108 1.11766 23.8282 0.365147C19.9456 -0.387363 15.927 0.0281238 12.2806 1.55909C8.63394 3.09005 5.52315 5.66778 3.34137 8.96637C1.1596 12.265 0.00474096 16.1364 0.0229102 20.0912C0.0408849 24.0461 1.23112 27.9067 3.44292 31.1852C5.65472 34.4639 8.78902 37.0131 12.4492 38.5106C16.1096 40.0081 20.1319 40.387 24.0075 39.5989C27.883 38.811 31.438 36.8918 34.223 34.0837C35.0663 33.2374 35.7334 32.232 36.1856 31.1259C36.6378 30.02 36.8661 28.8354 36.8574 27.6405ZM31.6389 31.5226C29.3598 33.8227 26.4498 35.3952 23.277 36.0414C20.1042 36.6876 16.8111 36.3785 13.8139 35.1531C10.8167 33.9277 8.25032 31.8412 6.43896 29.157C4.6278 26.4731 3.65308 23.3122 3.63836 20.0742C3.62344 16.8363 4.56909 13.6667 6.35578 10.9662C8.14228 8.26575 10.6897 6.15569 13.6754 4.9029C16.6611 3.65012 19.9514 3.31087 23.1301 3.92803C26.3087 4.5452 29.2329 6.09109 31.5329 8.37018C32.5594 9.38982 33.1396 10.7749 33.1462 12.2218C33.1529 13.6686 32.5854 15.059 31.5683 16.088C30.5511 17.1167 29.9836 18.507 29.9902 19.9537C29.9968 21.4004 30.577 22.7853 31.6035 23.8048C32.6315 24.8235 33.2127 26.209 33.2194 27.6562C33.226 29.1035 32.6575 30.4941 31.6389 31.5222"
            fill="url(#paint1_linear_232_140)"
        />
        <path
            d="M16.7897 19.9999C16.7897 21.6323 18.1129 22.9554 19.7452 22.9554C21.3775 22.9554 22.7007 21.6323 22.7007 19.9999C22.7007 18.3677 21.3775 17.0444 19.7452 17.0444C18.1129 17.0444 16.7897 18.3677 16.7897 19.9999Z"
            fill="url(#paint2_linear_232_140)"
        />
    </g>
    <defs>
        <linearGradient
            id="paint0_linear_232_140"
            x1="-1.91039"
            y1="20.0002"
            x2="36.7449"
            y2="20.0002"
            gradientUnits="userSpaceOnUse"
        >
            <stop stop-color="#00CD9E" />
            <stop offset="1" stop-color="#38A3DC" />
        </linearGradient>
        <linearGradient
            id="paint1_linear_232_140"
            x1="-1.89286"
            y1="19.9998"
            x2="36.7472"
            y2="19.9998"
            gradientUnits="userSpaceOnUse"
        >
            <stop stop-color="#00CD9E" />
            <stop offset="1" stop-color="#38A3DC" />
        </linearGradient>
        <linearGradient
            id="paint2_linear_232_140"
            x1="-1.92456"
            y1="19.9999"
            x2="36.7452"
            y2="19.9999"
            gradientUnits="userSpaceOnUse"
        >
            <stop stop-color="#00AB9E" />
            <stop offset="1" stop-color="#38A3DC" />
        </linearGradient>
    </defs>
</svg>