<svg
    width="20"
    height="20"
    viewBox="0 0 20 20"
    fill="none"
    xmlns="http://www.w3.org/2000/svg"
>
    <g clip-path="url(#clip0_86_162)">
        <path
            d="M18.9914 6.50695C17.9505 6.50695 16.9901 6.16612 16.2188 5.59113C15.3343 4.93198 14.6987 3.9651 14.4743 2.85069C14.4187 2.57534 14.3888 2.29119 14.386 2H11.4125V10.0308L11.4089 14.4297C11.4089 15.6057 10.6341 16.6029 9.56002 16.9536C9.24831 17.0553 8.91167 17.1036 8.56113 17.0846C8.11369 17.0603 7.6944 16.9268 7.32997 16.7113C6.55444 16.2529 6.02864 15.4212 6.01439 14.4698C5.99194 12.9829 7.20814 11.7706 8.71146 11.7706C9.00821 11.7706 9.2932 11.8185 9.56002 11.9054V9.71041V8.92134C9.27859 8.88015 8.99218 8.85867 8.70255 8.85867C7.05709 8.85867 5.51815 9.53471 4.41809 10.7526C3.58663 11.6731 3.08789 12.8473 3.01095 14.0786C2.91013 15.6962 3.50897 17.2339 4.6703 18.3683C4.84094 18.5349 5.02013 18.6895 5.20751 18.8321C6.20319 19.5894 7.42046 20 8.70255 20C8.99218 20 9.27859 19.9789 9.56002 19.9377C10.7577 19.7623 11.8627 19.2204 12.7348 18.3683C13.8064 17.3215 14.3984 15.9318 14.4048 14.4526L14.3895 7.88369C14.9007 8.27347 15.4597 8.596 16.0596 8.84635C16.9926 9.23542 17.9818 9.4326 19 9.43225V7.29814V6.50625C19.0007 6.50695 18.9921 6.50695 18.9914 6.50695Z"
            fill="#FF004F"
        />
        <path
            d="M16.9914 4.50695C15.9505 4.50695 14.9901 4.16612 14.2188 3.59113C13.3343 2.93198 12.6987 1.9651 12.4743 0.850688C12.4187 0.575341 12.3888 0.291192 12.386 0H9.41245V8.03083L9.40889 12.4297C9.40889 13.6057 8.63407 14.6029 7.56002 14.9536C7.24831 15.0553 6.91167 15.1036 6.56113 15.0846C6.11369 15.0603 5.6944 14.9268 5.32997 14.7113C4.55444 14.2529 4.02864 13.4212 4.01439 12.4698C3.99194 10.9829 5.20814 9.77058 6.71146 9.77058C7.00821 9.77058 7.2932 9.81847 7.56002 9.90544V7.71041V6.92134C7.27859 6.88015 6.99218 6.85867 6.70255 6.85867C5.05709 6.85867 3.51815 7.53471 2.41809 8.75265C1.58663 9.67305 1.08789 10.8473 1.01095 12.0786C0.910132 13.6962 1.50897 15.2339 2.6703 16.3683C2.84094 16.5349 3.02013 16.6895 3.20751 16.8321C4.20319 17.5894 5.42046 18 6.70255 18C6.99218 18 7.27859 17.9789 7.56002 17.9377C8.75769 17.7623 9.86274 17.2204 10.7348 16.3683C11.8064 15.3215 12.3984 13.9318 12.4048 12.4526L12.3895 5.88369C12.9007 6.27347 13.4597 6.596 14.0596 6.84635C14.9926 7.23542 15.9818 7.4326 17 7.43225V5.29814V4.50625C17.0007 4.50695 16.9921 4.50695 16.9914 4.50695Z"
            fill="#00F8F0"
        />
        <path
            d="M17.9914 5.50695C16.9505 5.50695 15.9901 5.16612 15.2188 4.59113C14.3343 3.93198 13.6987 2.9651 13.4743 1.85069C13.4187 1.57534 13.3888 1.29119 13.386 1H10.4125V9.03083L10.4089 13.4297C10.4089 14.6057 9.63407 15.6029 8.56002 15.9536C8.24831 16.0553 7.91167 16.1036 7.56113 16.0846C7.11369 16.0603 6.6944 15.9268 6.32997 15.7113C5.55444 15.2529 5.02864 14.4212 5.01439 13.4698C4.99194 11.9829 6.20814 10.7706 7.71146 10.7706C8.00821 10.7706 8.2932 10.8185 8.56002 10.9054V8.71041V7.92134C8.27859 7.88015 7.99218 7.85867 7.70255 7.85867C6.05709 7.85867 4.51815 8.53471 3.41809 9.75265C2.58663 10.6731 2.08789 11.8473 2.01095 13.0786C1.91013 14.6962 2.50897 16.2339 3.6703 17.3683C3.84094 17.5349 4.02013 17.6895 4.20751 17.8321C5.20319 18.5894 6.42046 19 7.70255 19C7.99218 19 8.27859 18.9789 8.56002 18.9377C9.75769 18.7623 10.8627 18.2204 11.7348 17.3683C12.8064 16.3215 13.3984 14.9318 13.4048 13.4526L13.3895 6.88369C13.9007 7.27347 14.4597 7.596 15.0596 7.84635C15.9926 8.23542 16.9818 8.4326 18 8.43225V6.29814V5.50625C18.0007 5.50695 17.9921 5.50695 17.9914 5.50695Z"
            fill="white"
        />
    </g>
    <defs>
        <clipPath id="clip0_86_162">
            <rect width="20" height="20" fill="white" />
        </clipPath>
    </defs>
</svg>