<svg width="20" height="20" viewBox="0 0 20 20" fill="none" xmlns="http://www.w3.org/2000/svg">
    <path fill-rule="evenodd" clip-rule="evenodd"
        d="M17.0071 8.21723C16.9616 8.21433 16.9121 8.21435 16.8607 8.21437L16.8478 8.21437H14.833C13.1722 8.21437 11.7512 9.53192 11.7512 11.2501C11.7512 12.9683 13.1722 14.2858 14.833 14.2858H16.8478L16.8607 14.2858C16.9121 14.2858 16.9616 14.2858 17.0071 14.2829C17.6817 14.24 18.2783 13.708 18.3285 12.9648C18.3318 12.9161 18.3317 12.8636 18.3317 12.8149L18.3317 12.8017V9.6985L18.3317 9.68529C18.3317 9.6366 18.3318 9.58408 18.3285 9.53535C18.2783 8.79221 17.6817 8.26016 17.0071 8.21723ZM14.6543 12.0596C15.0819 12.0596 15.4285 11.6972 15.4285 11.2501C15.4285 10.803 15.0819 10.4406 14.6543 10.4406C14.2268 10.4406 13.8802 10.803 13.8802 11.2501C13.8802 11.6972 14.2268 12.0596 14.6543 12.0596Z"
        fill="white" />
    <path fill-rule="evenodd" clip-rule="evenodd"
        d="M16.8602 15.5001C16.9799 15.497 17.0705 15.6088 17.0381 15.725C16.8768 16.3017 16.6209 16.7933 16.2102 17.2072C15.6091 17.813 14.8469 18.0818 13.9052 18.2094C12.9902 18.3334 11.821 18.3334 10.3449 18.3334H8.64784C7.17173 18.3334 6.00254 18.3334 5.08751 18.2094C4.14581 18.0818 3.3836 17.813 2.7825 17.2072C2.18141 16.6014 1.91465 15.8332 1.78804 14.8841C1.66502 13.9618 1.66503 12.7835 1.66504 11.2958V11.2044C1.66503 9.7167 1.66502 8.53833 1.78804 7.61611C1.91465 6.66701 2.18141 5.89881 2.7825 5.29299C3.3836 4.68718 4.14581 4.41832 5.08751 4.29072C6.00254 4.16673 7.17172 4.16674 8.64784 4.16675L10.3449 4.16675C11.821 4.16674 12.9902 4.16673 13.9052 4.29071C14.8469 4.41832 15.6091 4.68718 16.2102 5.29299C16.6209 5.70689 16.8768 6.19845 17.0381 6.77518C17.0705 6.89141 16.9799 7.00321 16.8601 7.00009L14.8329 7.00009C12.5545 7.00009 10.5463 8.81415 10.5463 11.2501C10.5463 13.686 12.5545 15.5001 14.8329 15.5001L16.8602 15.5001ZM4.67709 7.40484C4.34439 7.40484 4.07468 7.67667 4.07468 8.01199C4.07468 8.3473 4.34439 8.61913 4.67709 8.61913H7.88994C8.22264 8.61913 8.49235 8.3473 8.49235 8.01199C8.49235 7.67667 8.22264 7.40484 7.88994 7.40484H4.67709Z"
        fill="white" />
    <path
        d="M6.47894 3.35374L8.11128 2.15113C8.9879 1.50529 10.1755 1.50529 11.0521 2.15113L12.6931 3.36006C12.007 3.33338 11.2408 3.3334 10.4008 3.33342H8.59197C7.82439 3.3334 7.11845 3.33338 6.47894 3.35374Z"
        fill="white" />
</svg>